<?xml version="1.0" encoding="UTF-8" standalone="no"?>
<!-- Created with Inkscape (http://www.inkscape.org/) -->

<svg
   version="1.1"
   id="svg1"
   width="372"
   height="372"
   viewBox="0 0 372 372"
   sodipodi:docname="F3_Nation_Logo_Reg_SubScript.eps"
   xmlns:inkscape="http://www.inkscape.org/namespaces/inkscape"
   xmlns:sodipodi="http://sodipodi.sourceforge.net/DTD/sodipodi-0.dtd"
   xmlns="http://www.w3.org/2000/svg"
   xmlns:svg="http://www.w3.org/2000/svg">
  <defs
     id="defs1" />
  <sodipodi:namedview
     id="namedview1"
     pagecolor="#ffffff"
     bordercolor="#ffffff"
     borderopacity="0.25"
     inkscape:showpageshadow="2"
     inkscape:pageopacity="0.0"
     inkscape:pagecheckerboard="0"
     inkscape:deskcolor="#d1d1d1">
    <inkscape:page
       x="0"
       y="0"
       inkscape:label="1"
       id="page1"
       width="372"
       height="372"
       margin="0"
       bleed="0" />
  </sodipodi:namedview>
  <g
     id="g1"
     inkscape:groupmode="layer"
     inkscape:label="1">
    <path
       id="path1"
       d="M 1391.91,2630 C 712.621,2630 160,2077.38 160,1398.09 160,718.75 712.621,166.051 1391.91,166.051 c 679.22,0 1231.8,552.699 1231.8,1232.039 0,679.29 -552.58,1231.91 -1231.8,1231.91 m 0,-2623.94922 C 624.41,6.05078 0,630.551 0,1398.09 0,2165.59 624.41,2790 1391.91,2790 c 767.43,0 1391.8,-624.41 1391.8,-1391.91 C 2783.71,630.551 2159.34,6.05078 1391.91,6.05078"
       style="fill:#ffffff;fill-opacity:1;fill-rule:nonzero;stroke:none"
       transform="matrix(0.13333333,0,0,-0.13333333,0,372)" />
    <path
       id="path2"
       d="m 1226.02,1443.4 c 75.86,33.71 114.02,80.19 128.78,152.03 12.66,52.93 27.23,69.84 61.18,69.84 40.04,0 50.82,-19.06 50.82,-86.64 v -392.97 c 0,-63.47 -12.66,-84.49 -50.82,-84.49 -29.61,0 -46.49,16.88 -57.03,63.36 -23.21,90.86 -67.7,145.7 -132.93,158.4 z m 418.2,631.52 v -361.21 c 0,-48.44 -14.77,-67.5 -52.97,-67.5 -27.42,0 -42.3,12.62 -52.77,46.45 -48.52,158.36 -156.45,247.07 -312.46,259.8 v 122.46 z M 1141.33,862.422 c 0,-56.953 8.44,-67.621 78.24,-84.531 31.72,-6.289 48.71,-25.27 48.71,-52.77 0,-27.422 -21.37,-50.672 -48.71,-54.891 -16.91,-4.21 -19.1,-4.21 -76.13,-4.21 H 680.738 c -46.328,0 -48.547,0 -65.347,4.21 -25.352,6.29 -40.121,25.321 -40.121,52.86 0,25.308 14.769,44.211 42.269,52.769 57.152,18.942 63.199,25.27 63.199,78.121 v 1033.01 c 0,52.74 -6.047,59.1 -63.199,78.13 -27.5,8.47 -42.269,27.5 -42.269,52.85 0,27.5 14.769,46.4 40.121,52.77 16.8,4.18 19.019,4.18 65.347,4.18 h 460.592"
       style="fill:#ffffff;fill-opacity:1;fill-rule:nonzero;stroke:none"
       transform="matrix(0.13333333,0,0,-0.13333333,0,372)" />
    <path
       id="path3"
       d="m 2009.73,2091.87 c 192.89,-2.5 309.1,-85.66 309.1,-222.38 0,-58.71 -22.89,-109.8 -65.04,-148.08 -29.57,-25.63 -53.63,-38.44 -111.21,-56.14 63.59,-19.29 88.05,-29.45 116.25,-50 45.86,-33.16 72.85,-91.95 72.85,-159.68 0,-144.42 -117.58,-236.37 -302.7,-236.37 h -19.25 v 65.27 c 49.8,15.2 67.73,38.24 67.73,88.13 v 178.83 c 0,57.5 -21.8,82.96 -70.47,85.54 -35.7,2.66 -47.03,10.24 -47.03,34.57 0,21.72 10,29.34 45.94,31.99 54.84,5.04 71.56,28.01 71.56,95.82 v 140.36 c 0,52.42 -17.93,74.18 -67.73,85.74 z m -51.18,-66.4 c -31.91,-7.74 -46.05,-17.85 -46.05,-33.32 0,-4.96 3.95,-11.56 12.81,-18.99 39.69,-33.43 44.65,-43.51 44.65,-81.87 0,-61.41 -49.73,-111.17 -112.3,-111.17 -61.57,0 -108.6,49.76 -108.6,116.29 0,96.99 76.64,167.42 209.49,192.96 z m 0,-806.25 c -149.49,19.26 -236.28,88.08 -236.28,190.35 0,69.02 51.09,122.66 117.73,122.66 62.3,0 115.9,-52.39 115.9,-111.1 0,-33.16 -17.85,-67.73 -44.61,-89.53 -14.02,-11.4 -18.01,-15.31 -18.01,-21.72 0,-13.94 26.95,-24.26 65.27,-25.39"
       style="fill:#ffffff;fill-opacity:1;fill-rule:nonzero;stroke:none"
       transform="matrix(0.13333333,0,0,-0.13333333,0,372)" />
    <text
       id="text3"
       xml:space="preserve"
       transform="matrix(1.3333333,0,0,1.2433288,337.86267,370.61303)"><tspan
         id="tspan3"
         style="font-variant:normal;font-weight:normal;font-size:33.6144px;font-family:Arial;writing-mode:lr-tb;fill:#ffffff;fill-opacity:1;fill-rule:nonzero;stroke:none"
         x="0"
         y="0">®</tspan></text>
  </g>
</svg>
